#usda 1.0
(
    customLayerData = {
        string creator = "MuJoCo USD Converter v0.1.0a2"
    }
    defaultPrim = "stage"
    kilogramsPerUnit = 1
    metersPerUnit = 1
    upAxis = "Z"
)

def Xform "stage" (
    prepend apiSchemas = ["GeomModelAPI"]
    assetInfo = {
        string name = "stage"
    }
    kind = "component"
    prepend payload = @./Payload/Contents.usda@
)
{
    float3[] extentsHint = [(-1, -1, -4.4703483e-10), (1, 1, 0.19755372), (3.4028235e38, 3.4028235e38, 3.4028235e38), (-3.4028235e38, -3.4028235e38, -3.4028235e38), (3.4028235e38, 3.4028235e38, 3.4028235e38), (-3.4028235e38, -3.4028235e38, -3.4028235e38), (-0.075, -0.6105, -4.4703483e-10), (0.401, 0.6105, 0.20444366)]
}

def PhysicsScene "PhysicsScene" (
    prepend payload = @./Payload/Contents.usda@</PhysicsScene>
)
{
}

